<svg xmlns="http://www.w3.org/2000/svg" width="19.531" height="19.693" viewBox="0 0 19.531 19.693">
    <g data-name="Group 643">
        <path data-name="Path 8477" d="M7.839 15.627 18.162 5.305a2.007 2.007 0 0 0 0-2.839l-1.127-1.128a2.009 2.009 0 0 0-2.841 0L3.872 11.661a2.009 2.009 0 0 0-.366.5l-2.64 5.114a1 1 0 0 0 1.352 1.353l5.12-2.637a2.02 2.02 0 0 0 .501-.364z" transform="translate(.031 .167)" style="fill:none;stroke:#fff;stroke-linecap:round;stroke-linejoin:round;stroke-width:1.5px"/>
        <path data-name="Line 246" transform="translate(3.716 12.082)" style="fill:none;stroke:#fff;stroke-linecap:round;stroke-linejoin:round;stroke-width:1.5px" d="m0 0 3.898 3.898"/>
        <path data-name="Line 247" transform="translate(1.847 18.917)" style="fill:none;stroke:#fff;stroke-linecap:round;stroke-linejoin:round;stroke-width:1.5px" d="M14.014 0H0"/>
    </g>
</svg>
