<?xml version="1.0" encoding="utf-8"?>
<!-- Generator: Adobe Illustrator 27.9.0, SVG Export Plug-In . SVG Version: 6.00 Build 0)  -->
<svg version="1.1" xmlns="http://www.w3.org/2000/svg" xmlns:xlink="http://www.w3.org/1999/xlink" x="0px" y="0px"
	 viewBox="0 0 645.5 322.6" style="enable-background:new 0 0 645.5 322.6;" xml:space="preserve">
<g id="BACKGROUND_2">
</g>
<g id="BACKGROUND_1">
</g>
<g id="DESIGNED_BY_FREEPIK">
</g>
<g id="복사_원본">
</g>
<g id="레이어_4_사본">
</g>
<g id="배경">
	<g>
		<g>
			<path style="opacity:0.3;fill:#AFE5ED;" d="M575.9,257.7l-3.2,0l3-10l-3.6-15.5l-8.3-10H588l-24.2-19.6l-1.2-4l-9.2-8.1
				l-13.3-3.9l-0.8-1.7l-6.5,0l-6.3-18.5l2.4-8.1L519,155l31.3-14l1.6-14.2l5.1-2.3l0.9,3.7l3.9-5.9l5.1-2.3l-2.5-1.7L580.5,94
				l-0.2-3l5.3,0.6l18.7-12.5l-0.1-0.7l11.9,3.7l29.4-26.6l-64.7-10.8h-15.3l-27.4-9.3l-15.2,4.7l-2.6-3.3l-22.8-3.7l-7.8-11.4
				l-48.7,12.2l-5.6,3.7l-7.7-5.3L412,46.7l-23.6,7.2l-23.5-11.9l-25.3,9.8l-17.3,22.6l0.6,18l-19.2,15.1l1.8,1.8l-0.5,0l-4.4,26.5
				l0.8,0.3L291,153.1l0.8,25.8l22.9,20.7l18.8-3.9l0.2,5.9l5.2,12l-1.8,15.1l16.8,36.8l25.6,0l16.5-27.1l-0.3-6.5l7.8-8.5
				l-3.4-16.7l12.3-13.3l5.3-20.1l10.7-5l16.9,42.4l10.7-26.7l19.7,24.4l-5.4,7.6l13,1.8l3.8,4.6l3-3.7l15.7,2.2l-15.6,5.9
				l12.3,43.1l26.7-8.5l6.4,4.8l3,6.3l4.4,0.8l13.8,22.2L575.9,257.7z M549.4,94.7l3.6,14.1l-1.6,0.5l-2.9-2l-0.7-12.3L549.4,94.7z
				 M460.3,173l2.5-2l2.5,3.5h-5.6L460.3,173z"/>
			<polygon style="opacity:0.3;fill:#AFE5ED;" points="605.9,249.3 601.6,251 601.1,251 601.1,251.2 586.5,256.9 587.2,260.2 
				567,279.2 596.5,295.3 604.3,279 611,271.1 625.8,251 606.9,251 			"/>
			<path style="fill:#6FDFF2;" d="M580,55.3h-16.1l-25.8-8.7l-18.9,5.8l-4.5-5.8l-23.2-3.7l-6.2-9.1l-39.8,9.9l-10.1,6.6l-6.7-4.6
				l-11.4,10.4l-29.9,9.2l-23.1-11.6l-18.2,7.1L333,77.9l0.3,8.6l9.2,0l0.9,4.2l-10.1,7.1l-13.9,10.9l5.2,5.5l-1.4,5l-9.2,0.4
				l-1.6,9.7l6.3,2.5l7.7-2.1l6.6-11.4l8.4-2.5l9.7,10.9l2.6-2.1l-7.3-9.7l2.7-0.8l11.8,16l1.9-2.1l0.2-4.2l2.7-0.8l2.8,2.1l2.7-1.3
				l-1.3-5l1.7-5.5l18.3,4.6l-1.7,5l-14.2,1.7l-6.4,5.5l4.3,2.5l9.6-1.7l-1.9,9.7l-4.5,2.5l-16-4.6l-1.8,4.6l-14.6-7.2l-0.6-6.3
				l-28.3,7.2l-11.8,19l0.6,18.1l15.6,14.1l16.6-3.4l9.4,3.4l0.4,11.1l5.5,12.8l-1.8,15l12.7,27.9l12.9,0l11.7-19.3l-0.3-7.7
				l7.1-7.7l-3.4-16.7l14.1-15.3l3.7-14.1l-13,3.5l-15-26.3l2.1-4.6l14.6,25.4l22.8-10.6l-6.1-7.6h-6.6l-5.8-10.1l2.7-0.4l3.7,4.6
				l22.6,4.2l8.5,9.3l8.3,20.8l6.3-15.7l13.4-10.6l12.9,18.1l0.4,7.8l8,12.3l2.6-2.1l-8.7-11.5l0.9-6.5l7.3,6.9l5.8-8.9l-6.2-8.9
				l5.6-4.2l11.1-3l8.7-12.3l-4.7-9.3l3.8-8.4l7,8.4l4.6-0.4l-4.7-8l10.9-6.3l7.8-12.2l-0.7-12.6h-6.5l9.5-9.6l15.3-2.1l8.2-5.4
				l7.7,0l-12,12.9l3,11.7l7.5-11.3l-0.3-5.8l6.6-5.4l7,0.8l10-6.7l-0.7-5l7.9-2.9l13.3,4.2l8.7-7.9L580,55.3z M400.5,131l0.5-7.6
				l-4.5-6.7l9-6.3l3.9,20.6L400.5,131z"/>
			<polygon style="fill:#6FDFF2;" points="540.7,114.7 539.8,120.7 545.5,118.1 			"/>
			<polygon style="fill:#6FDFF2;" points="535.4,131 523.9,136.6 524.1,141.1 540.5,133.8 541.7,123.1 537.9,124.3 			"/>
			<polygon style="fill:#6FDFF2;" points="474.1,185.2 470.5,185.2 487,205.6 491.2,200.5 			"/>
			<polygon style="fill:#6FDFF2;" points="505.5,207.5 491.4,204.5 488.9,207.9 507.2,210.4 			"/>
			<polygon style="fill:#6FDFF2;" points="497.2,192.4 493.4,192.5 497.6,200.2 505.2,201.9 509.7,192.5 507.4,188.8 510.9,185.2 
				505.8,182.9 			"/>
			<polygon style="fill:#6FDFF2;" points="510.1,170.7 513.6,172.4 515.8,165.1 509.7,163.1 			"/>
			<polygon style="fill:#6FDFF2;" points="515.9,182.9 518.5,186.9 521.7,185.2 519.6,178.9 512,182.9 			"/>
			<polygon style="fill:#6FDFF2;" points="509.7,198.5 510.9,204.5 513.1,204.5 512.9,199.9 516.2,204.5 519,203 514.5,198.4 
				517.4,196.8 517.3,195.4 512.7,196.8 512.6,194.2 517.3,192.4 517.2,189.4 511.2,192.4 			"/>
			<polygon style="fill:#6FDFF2;" points="527,197.9 531,199.9 532.5,203 537.7,203 540.4,205.6 541.4,208.7 547.5,210.4 
				550.4,207.5 553.7,211.6 558.1,211.6 554.6,208.7 553.3,204.5 548.1,199.9 537.9,196.9 534.7,200.7 532.4,195.4 526.9,195.4 			
				"/>
			<polygon style="fill:#6FDFF2;" points="554.3,227.3 551,219 549.1,218.7 547.7,213 546.5,213 543.6,223.3 536.3,220.4 536,216.1 
				530,215 525.3,219.6 523.4,218.1 517.2,223.3 515.8,228.4 502.9,233.3 509.5,256.5 531,249.6 538.1,254.9 541.1,253.3 
				545.7,263.1 553.4,264.5 560.8,260.5 564.7,247.3 562.3,237 			"/>
			<polygon style="fill:#6FDFF2;" points="555.6,274 558.6,268.3 552.1,268.3 			"/>
			<polygon style="fill:#6FDFF2;" points="584.9,276.9 591.8,280.6 597.7,268.3 594,268.3 			"/>
			<polygon style="fill:#6FDFF2;" points="596.9,254.9 599.5,268.3 602.7,264.5 604.9,261.6 601.1,261.6 			"/>
		</g>
		<g>
			<polygon style="opacity:0.3;fill:#AFE5ED;" points="227.8,195.1 199.4,187 179.6,163.4 155.9,163.4 153.6,165.3 154,162.1 
				142.6,156.3 147.3,157.2 161.9,140.8 163.2,132.1 184.1,120.9 205.9,125.4 190.9,88.8 203.8,97.2 214.3,75.8 238.5,62.1 
				248.5,38.9 244.8,31.1 272.3,13.1 230.8,2.1 190.1,2.1 180.8,5 148.3,0 120.5,6.5 118.6,7.9 111,10.8 97.3,4 101.4,14.5 
				100.7,14.7 87.1,13.9 89.8,18.6 89.5,18.4 86.5,20.1 69.1,26.8 72,28.7 50.5,41.5 64.6,44 63.8,45.3 59.5,46.6 52.3,43 
				24.2,38.7 0,55.5 10.4,69.1 0.3,84.5 31,101.1 43,93.1 57.4,97.9 70,111.5 66.1,128.7 102.7,173.3 121.1,178.7 124.9,180.7 
				125,188.7 136.5,192.8 132.5,207.9 151.2,230 145.3,282 149.5,300.7 185.6,322.6 178,285.4 184.8,273.5 205,254.6 204.8,247.2 
				221.6,239.6 221,221.7 228.4,215.5 			"/>
			<polygon style="fill:#6FDFF2;" points="174.7,174 159.7,174 154.2,178.5 141.6,177.8 142.7,168.2 130.7,162 121.2,159.3 
				121,147.7 129,143 143.4,145.7 151.9,136.2 153.5,125.3 171.7,115.6 167.5,106.8 188.6,111.1 181.9,94.8 167.9,81.4 163.9,85.5 
				156,77.4 146.6,75.3 152.1,91.2 143.5,96.2 122.7,84.7 129.9,72.3 142.7,64.6 140.7,57.2 124.4,58.5 115.9,62.6 93.3,63.3 
				72.6,53.8 58.4,57.9 49.1,53.2 26.8,49.8 15.1,57.9 23.3,68.6 15.4,80.7 30.4,88.8 41.4,81.4 63.3,88.8 81.6,108.4 77.6,126 
				108.8,164.1 125.2,168.9 135.3,174.4 135.5,181.2 144.9,184.6 148.1,184.6 148.2,190.1 144.1,205.2 162.2,226.6 156,281.5 
				158.8,294 170.4,301 166.8,283.6 176.5,266.8 194.3,250.2 194,240.4 210.8,232.8 210.3,217 217.7,210.7 217.4,203.2 193.4,196.3 
							"/>
			<polygon style="fill:#6FDFF2;" points="85.2,50.6 93.8,59.9 112.6,55.2 105.5,44.7 97.4,46.9 88.6,41.3 78.9,41.3 74.7,48 
				79.1,52.1 			"/>
			<polygon style="fill:#6FDFF2;" points="112.4,44.4 116.1,50.6 121.9,56 126.7,54.6 124.8,49.8 127.7,42.7 			"/>
			<polygon style="fill:#6FDFF2;" points="161.9,53.2 148.2,43.8 131.7,43.6 128.8,50.2 131.9,55.2 146.1,54.3 155.5,62.1 
				147.8,69.9 155.7,71.8 166.9,77.9 166.8,71.8 163.3,66 170.9,64.3 			"/>
			<polygon style="fill:#6FDFF2;" points="95,41.3 108.7,38.7 103.3,35 95.4,35 89.2,30.9 80.3,36.1 89.6,37.8 			"/>
			<polygon style="fill:#6FDFF2;" points="98.9,32.5 101.8,25.6 91.7,29.5 96.1,32.5 			"/>
			<polygon style="fill:#6FDFF2;" points="108.6,35 113.7,39.7 142.2,41.3 146.9,32.5 152.8,24.2 171.7,14.3 148.7,10.8 125.1,16.3 
				118.1,21.5 130.7,29.1 			"/>
			<polygon style="fill:#6FDFF2;" points="114.9,30.7 112.7,26 105.9,25.6 108.5,30.3 			"/>
			<polygon style="fill:#6FDFF2;" points="124.1,29.1 117.1,25.6 118.5,29.1 			"/>
			<polygon style="fill:#6FDFF2;" points="246.6,17.2 229.4,12.7 191.7,12.7 162.9,21.8 162.5,26 154.2,29.1 158.7,36.1 173.5,36.1 
				185.6,50.6 186.8,73.5 199.6,81.8 206.2,68.2 230.2,54.6 236.9,39.1 231.2,27.3 			"/>
		</g>
	</g>
</g>
</svg>
